<?xml version="1.0" standalone="no"?>
<!DOCTYPE svg PUBLIC "-//W3C//DTD SVG 20010904//EN"
 "http://www.w3.org/TR/2001/REC-SVG-20010904/DTD/svg10.dtd">
<svg version="1.0" xmlns="http://www.w3.org/2000/svg"
 width="16.000000pt" height="20.000000pt" viewBox="0 0 512.000000 512.000000"
 preserveAspectRatio="xMidYMid meet">

<g transform="translate(0.000000,512.000000) scale(0.100000,-0.100000)"
fill="#fff" stroke="none">
<path d="M1795 4714 c-205 -43 -352 -149 -436 -317 -78 -154 -83 -344 -14
-503 13 -29 217 -340 455 -693 l431 -641 -431 -641 c-238 -353 -442 -664 -455
-693 -34 -77 -49 -152 -48 -241 2 -371 333 -641 702 -572 117 23 231 80 314
159 89 84 1450 1787 1485 1858 22 46 27 68 26 132 0 65 -5 86 -30 133 -38 73
-1429 1810 -1497 1870 -123 109 -358 178 -502 149z"/>
</g>
</svg>
