<?xml version="1.0" standalone="no"?>
<!DOCTYPE svg PUBLIC "-//W3C//DTD SVG 20010904//EN"
 "http://www.w3.org/TR/2001/REC-SVG-20010904/DTD/svg10.dtd">
<svg version="1.0" xmlns="http://www.w3.org/2000/svg"
 width="16.000000pt" height="20.000000pt" viewBox="0 0 512.000000 512.000000"
 preserveAspectRatio="xMidYMid meet">

<g transform="translate(0.000000,512.000000) scale(0.100000,-0.100000)"
fill="#fff" stroke="none">
<path d="M3107 4705 c-104 -22 -222 -83 -300 -157 -89 -84 -1450 -1787 -1485
-1858 -22 -46 -27 -68 -26 -132 0 -65 5 -86 30 -133 38 -73 1429 -1810 1497
-1870 114 -101 303 -164 457 -151 407 32 658 450 495 822 -13 29 -217 340
-455 693 l-431 641 431 641 c238 353 442 664 455 693 34 77 49 152 48 241 -1
261 -166 481 -420 561 -70 22 -215 26 -296 9z"/>
</g>
</svg>
